<?xml version="1.0" encoding="utf-8"?>
<!-- Generator: Adobe Illustrator 26.3.1, SVG Export Plug-In . SVG Version: 6.00 Build 0)  -->
<svg version="1.1" id="图层_1" xmlns="http://www.w3.org/2000/svg" xmlns:xlink="http://www.w3.org/1999/xlink" x="0px" y="0px"
	 viewBox="0 0 2560 480" style="enable-background:new 0 0 2560 480;" xml:space="preserve">
<style type="text/css">
	.st0{fill:#879DAB;}
	.st1{fill:#255A65;}
</style>
<g id="Symbol">
	<g>
		<path class="st0" d="M220.4,478.5C179,474.5,143,462,109.5,440c-23-15.1-44.1-35.2-60.8-57.8c-20.7-28-35.6-63.8-41.9-100.2
			c-4.8-27.8-4-62.7,2.2-90.8c11.6-53.4,41.4-101,84.8-135.8c33.8-27,76.6-44.2,123-49.4c4.3-0.4,15.1-0.9,24-0.9
			c21.2,0,37.7,2,56.7,6.5c67.6,16.5,126,63.1,155.9,124.6c22.7,46.7,30.1,100,20.9,150.4c-6.8,37.2-23.5,73.8-47.5,104.3
			c-8.3,10.5-28.4,30.3-38.9,38.5c-34.2,26.4-71.8,42-116.2,48.2C262.2,478.7,229.8,479.4,220.4,478.5z M271.9,462
			c5.8-0.8,14.2-2.4,18.8-3.5c9.5-2.2,25.9-7,25.9-7.7c0-0.3-25.6-14.1-56.8-30.7L203,389.9l-3.1,1.6c-1.7,1-4.4,2-5.9,2.2l-3,0.4
			l-11.1,27.8c-6.1,15.3-11.2,28.3-11.5,28.9c-0.8,2.2,24.4,8.9,42.8,11.5c12.7,1.8,13,1.8,32.2,1.6
			C257.1,463.7,263.9,463.3,271.9,462z M175,421.1l11.8-29l-1.8-2.1c-1-1.2-2.2-3.3-2.7-4.8c-0.4-1.4-1.3-2.6-1.7-2.6
			c-0.5-0.1-28.7-4-62.6-8.9c-34-4.8-61.7-8.6-61.7-8.3c0,0.2,3.2,4.7,7.1,9.9c20.2,26.9,43.8,47.2,73.5,63.3
			c6.8,3.7,24.1,11.5,25.6,11.6C162.9,450,168.5,437,175,421.1z M326.9,447.1l2.8-1.5l9.7-33l9.6-33l-2.6-2.9
			c-1.5-1.7-2.8-3.3-2.9-3.8c-0.2-0.6-21.8,1-69.7,4.9c-58.1,4.9-69.4,6-69.6,6.9c-0.1,0.8,16.7,10,58.9,32.4
			c32.5,17.1,59.5,31.2,60.1,31.3C323.6,448.4,325.4,447.8,326.9,447.1z M342.2,440.2c31.5-15.8,63.8-45,85.3-77
			c2.5-3.8,4.5-7.1,4.3-7.4c-0.3-0.3-60.4,11.8-64.4,12.9c-0.8,0.2-1.4,0.9-1.4,1.6c0,4.3-5.8,10-10.3,10c-1.4,0-2.5,0.2-2.5,0.4
			c0,0.2-3.9,13.8-8.7,30.2c-4.7,16.4-8.8,30.4-9,31.1c-0.2,0.7-0.2,1.3,0.1,1.3C335.9,443.3,338.8,441.8,342.2,440.2z M273.8,373.1
			c37.1-3.1,67.8-5.6,68.4-5.6c0.5-0.1,1.8-1.7,2.7-3.8l1.8-3.8L334,339.8l-12.6-20.2h-3.3c-1.8,0-4.7-0.7-6.5-1.6l-3.1-1.6
			l-50.9,30.1c-28,16.7-51.6,30.7-52.4,31.2c-1.4,1-1.4,1-0.1,1C205.8,378.8,236.7,376.2,273.8,373.1z M185.6,374.5l3.6-3.6
			l-2.3-16.9c-1.4-9.3-4.5-31.3-7.1-48.9l-4.6-32.1h-3.3c-1.8,0-3.8-0.3-4.6-0.8c-1.2-0.6-11,6.5-58.3,42.5
			c-31.3,23.8-57.1,43.4-57.2,43.5c-0.2,0.2,0,0.7,0.4,1c0.6,0.6,122.5,18.5,127.5,18.7C181.6,378,182.9,377.2,185.6,374.5z
			 M254.3,343.4l51.7-30.8v-2.9V307l-11-3.4c-6.1-2-34-11.1-61.9-20.3l-50.7-16.7l-1.7,2.2l-1.6,2.2l7.4,50.2
			c6.1,41.8,7.6,50.2,8.6,50.2c0.6,0,2.3,0.7,3.8,1.4c1.4,0.8,2.8,1.5,3.2,1.5C202.3,374.2,225.8,360.4,254.3,343.4z M401.2,356.6
			c18.8-4,34.3-7.3,34.3-7.4c0.7-0.7,9.2-18.5,11.5-24c8.5-20.4,14.2-44.9,15.7-67.6l0.7-9.7L446,227.4
			c-16.8-19.9-17.4-20.5-19.8-20.2l-2.6,0.2l-31.3,76l-31.4,76l2,2.2c1.1,1.2,2.5,2.2,3.1,2.2S382.4,360.5,401.2,356.6z
			 M356.7,356.7c0.5-0.4,60.3-146.2,60.1-146.4c-0.1-0.1-20.5,20.4-45.4,45.7l-45,45.9l1,2.4c1.5,3.4,1.3,6.1-0.7,9.6l-1.7,3.1
			l12.8,20.3l12.8,20.4l3-0.5C355.3,357,356.7,356.8,356.7,356.7z M106.1,310.9c30.2-23,55-42.1,55.3-42.3c2.3-2-2.9-2.3-71-4.9
			c-38.7-1.4-70.6-2.5-70.8-2.2c-0.1,0.1,0.5,5.8,1.4,12.4c3.7,26,12.1,52,24.3,74c3.3,6.1,3.9,6.8,5,5.9
			C50.9,353.2,76.1,333.9,106.1,310.9z M309.4,300.2c1.3-1.2,2.9-2.4,3.6-2.9c1.1-0.7,1-4.8-1.7-52.1c-1.6-28.3-3-51.5-3-51.5
			c0-0.1-0.6-0.2-1.4-0.2c-0.8,0-2.2-0.7-3.4-1.6l-2-1.6l-25.6,15c-14.1,8.2-40.7,23.8-59,34.5c-18.4,10.8-33.4,20-33.4,20.5
			c0,0.6,23.4,8.7,61.5,21.4c33.8,11.2,61.7,20.4,61.8,20.5C306.8,302.2,308,301.4,309.4,300.2z M353.6,268.4
			c16.5-16.6,37.5-37.9,46.7-47.2l16.7-16.9l-1.3-2.3l-1.4-2.2l-43.9-6.1c-24.1-3.4-45.1-6.4-46.6-6.6c-2.3-0.3-2.8-0.1-4,2
			c-0.8,1.3-2.6,2.9-4,3.5c-1.4,0.7-2.6,1.6-2.6,2c-0.1,0.5,1.2,23.7,2.8,51.6l2.8,50.8l1.9,0.7c1.1,0.4,2,0.8,2.2,0.8
			C323.5,298.5,337.1,284.9,353.6,268.4z M159.6,259.8c-0.1-0.7-16.8-13.4-37.1-28.1l-36.9-26.9l-2.8,1.2c-1.9,0.8-4,1.1-6.3,0.8
			c-1.9-0.2-4.1-0.5-5-0.6c-1.2-0.1-8,5.7-27.2,23.7c-15.3,14.4-25.6,24.5-25.6,25.4c0,1.2,0.8,1.3,6.2,1.4c3.4,0,32.3,1,64.3,2.1
			C163.1,261.4,159.9,261.3,159.6,259.8z M164,253.2l1.6-1.7l-7.8-35c-4.3-19.2-7.9-35.1-7.9-35.2c0-0.2-1-0.5-2.4-0.8
			c-1.3-0.2-3.5-1.4-4.9-2.4l-2.6-1.9l-25.4,9.1l-25.4,9.2l-0.5,3.4c-0.4,2.8-0.2,3.5,0.9,4.4c0.8,0.5,17.2,12.7,36.6,26.9
			c19.3,14.2,35.4,26,35.6,26C162.2,255,163.1,254.2,164,253.2z M240,221c31.6-18.4,57.7-33.9,58.1-34.5c0.4-0.6,0.5-1.4,0.2-1.6
			c-0.2-0.3-31.3-3.1-69-6.3l-68.5-5.8l-1.2,1.9c-0.7,1.1-2.2,2.7-3.4,3.5l-2.1,1.6l7.8,34.9l7.9,34.9l3.2,0.5
			c2,0.3,4.1,1.3,5.6,2.6c1.4,1.2,2.8,2.1,3.1,1.9C182.3,254.6,208.4,239.4,240,221z M67,200.3c-0.5-5.3-0.3-7.4,0.8-9.5l1.1-2.2
			L53.4,170L38,151.4l-2,4.4c-10.5,23.6-17.1,55-17.2,81.4v10.4L43,224.9C63.2,205.8,67.1,201.8,67,200.3z M462.8,227.7
			c-1.3-20.2-4.4-36.7-10.1-54.1c-2.9-8.8-10.1-26.2-10.5-25.7c-0.1,0.1-2.6,8.8-5.6,19.2l-5.4,19l2,1.9c3.8,3.9,4.4,10.1,1.1,14.2
			c-1.6,1.9-1.6,1.9-0.1,3.6c0.8,0.9,7.6,9,15.2,18c7.5,9,13.8,16.2,13.9,16.1S463.1,234.2,462.8,227.7z M414.6,191.2l1.6-3.1
			L382,129.5c-18.8-32.2-34.6-59-35-59.6c-0.7-0.7-1.4-0.8-3.1-0.2l-2.2,0.8l-13,50.7l-13,50.6l2.6,2.8c1.5,1.5,3,3.8,3.4,5l0.8,2.2
			l43.8,6.2c24.1,3.3,44.6,6.1,45.4,6.1C412.7,194.3,413.5,193.4,414.6,191.2z M113.5,180.3c22.6-8.2,24.5-9,24.5-10.6
			c0-0.9,0.5-2.9,1.1-4.4l1.1-2.7l-30.8-35.2c-16.9-19.4-31-35.1-31.1-34.9c-0.2,0.1,0.1,16.4,0.4,36.2c0.4,19.7,0.8,40.3,0.8,45.8
			v9.9l2.2,0.9c1.2,0.5,2.9,1.7,3.9,2.7c1,1,2.1,1.7,2.5,1.6C88.5,189.4,99.9,185.2,113.5,180.3z M74.7,149.3
			c-0.2-19.7-0.7-39.5-0.9-44.2c-0.6-10-0.2-10.1-9,1.5c-7,9.1-14.4,20.9-20.4,32.1l-4.6,8.6L56,166.7
			c13.6,16.2,16.4,19.1,17.6,18.8l1.7-0.4L74.7,149.3z M426.8,183.8c0.2-0.2,3.2-10,6.6-21.7l6.1-21.2l-4.6-8.1
			c-5.6-9.8-13.1-20.9-19.9-29.4c-10.5-13.2-38.6-39.6-44.6-41.9c-1-0.4-5.4-1-9.8-1.3l-7.9-0.5l-1.2,3l-1.2,3l34.6,59.7l34.6,59.7
			l3.4-0.4C424.9,184.5,426.6,184.1,426.8,183.8z M296.6,178.7c-0.4-0.4-27.1-14.4-59.2-31.3c-32.2-16.8-60.5-31.6-62.9-32.9
			c-3.9-2.1-4.4-2.2-5.2-1.1c-1.3,1.7-5.9,4.4-7.4,4.4c-1.4,0-1.2-1.1-5.1,22.5c-2.2,12.7-2.8,18.5-2.2,18.6c2,0.7,4.7,3.8,5.6,6.5
			c0.8,2.4,1.4,3.1,3.2,3.3c5,0.6,126.2,10.4,130,10.5C295.5,179.2,297,179,296.6,178.7z M303.4,174c0.8-0.8,2.9-1.9,4.7-2.3
			c2.8-0.8,3.3-1.2,3.9-3.6c6.8-26,25-96,25.3-96.9c0.2-0.8-0.5-1.7-2.2-2.7c-1.4-0.8-3.2-2.9-4-4.5l-1.4-3l-78.7,22.3
			c-64.4,18.3-78.8,22.6-78.8,23.6c0,0.9,17.9,10.6,64.5,34.9c35.5,18.5,64.7,33.7,64.9,33.7C301.8,175.5,302.6,174.8,303.4,174z
			 M147.7,158.2c1,0,1.6-0.7,1.9-2c0.8-3.5,6.4-37.3,6.4-38.1c0-0.4-1-1.4-2.2-2.2c-2.6-1.8-4.3-4.4-5-8.1c-0.3-1.7-1-2.9-1.8-3.2
			C136.4,101.6,82.5,87,81.8,87c-0.5,0-0.8,0.4-0.7,0.8c0.2,0.4,14.2,16.8,31.4,36.3c26.2,29.9,31.2,35.4,32.3,34.8
			C145.6,158.6,146.9,158.2,147.7,158.2z M250.9,78.4c55.6-15.6,79-22.5,79.5-23.4c0.5-0.7,1.8-2.4,3.1-3.9l2.3-2.6l-2.2-5.1
			c-2.6-5.8-1.9-5.3-15.4-10.4c-23.2-8.7-49-13.5-73.8-13.7c-7.3,0-13.3,0.1-13.6,0.3c-6.7,8-61.3,79-61.3,79.7c0,1.3,0.7,2,1.7,1.6
			C171.8,100.7,207.6,90.5,250.9,78.4z M152,98.2c2.3-2.6,6.1-3.8,10-3.3l3.5,0.5L194,58.8c15.6-20.1,28.9-37.2,29.4-38
			c1-1.3,0.8-1.4-3.4-0.9c-48,4.9-95,26-129.9,58.2l-4.6,4.3l3.2,0.9c20.3,5.5,60.4,16.3,61.1,16.3C150.2,99.8,151.1,99,152,98.2z
			 M363,56c0-0.4-16.7-10.3-20.8-12.4c-1.8-1-3.5-1.5-3.7-1.3c-0.1,0.2,0.2,1.4,0.8,2.7c0.9,1.6,2,2.5,4.4,3.1c2,0.5,4.2,2,6.1,3.9
			c2.6,2.8,3.3,3.1,7.9,3.5c2.7,0.3,5,0.6,5.2,0.7C362.9,56.2,363,56.1,363,56z"/>
	</g>
</g>
<g id="text" transform="translate(500,425) scale(0.100000,-0.100000)">
	<g id="Welcome_to_my">
		<path class="st0" d="M4360,3593.5c-8-36-135-818-135-834c0-9,10-14,29-14c22,0,30,6,34,23c3,12,27,168,53,347s50,328,53,332
			s67-142,141-323c74-182,141-333,148-336c8-3,19,1,26,8c11,12,228,469,299,629l20,45l51-360l51-360l33-3c17-2,32,1,32,5
			c0,12-119,803-126,836c-14,68-36,34-203-323c-91-193-168-347-172-343s-71,162-150,351c-111,263-148,342-161,342
			C4373,3615.5,4363,3605.5,4360,3593.5z"/>
		<path class="st0" d="M6455,3180.5v-435h30h30l2,362l3,361l318-366c175-202,325-367,333-367c12,0,14,63,14,435v435h-30h-30l-2-365
			l-3-365l-320,370c-176,203-326,370-332,370C6458,3615.5,6455,3521.5,6455,3180.5z"/>
		<path class="st0" d="M8580,3603.5c-2-7-35-202-73-433l-68-420l29-3c16-2,30-2,32,0s28,162,57,356c32,213,56,348,61,340
			c5-7,68-157,141-333c108-263,136-320,151-320c16,0,50,66,175,333c109,234,157,327,162,315c4-10,28-170,54-355l47-338h34
			c32,0,34,2,29,28c-6,28-126,827-126,837c0,3-8,5-19,5c-14,0-53-74-182-350c-90-192-166-350-169-350s-70,157-150,348
			c-104,246-151,348-163,350C8593,3615.5,8583,3611.5,8580,3603.5z"/>
		<path class="st0" d="M11251,3203.5c-37-227-70-423-73-435c-5-20-1-23,29-23h33l55,361c34,230,57,355,62,343c4-11,66-160,138-333
			c71-173,133-318,139-324c5-5,16-7,23-4s83,156,168,340s156,332,157,329c3-8,103-695,103-705c0-4,16-7,36-7c29,0,34,3,30,18
			c-3,9-32,202-66,427c-34,226-65,414-70,419s-15,6-22,3c-7-2-85-159-172-346c-88-188-162-344-166-346s-72,152-152,343
			c-116,276-150,348-165,350C11319,3616.5,11314,3589.5,11251,3203.5z"/>
		<path class="st0" d="M15352,3218.5c-92-219-173-415-182-435l-15-38h34h33l63,150l63,150h186h187l61-147l61-148l36-3
			c20-2,36-1,36,1s-79,193-176,423s-178,425-181,432c-3,6-13,12-23,12C15522,3615.5,15481,3526.5,15352,3218.5z M15621,3287.5
			c41-97,74-180,74-184c0-5-72-8-160-8s-160,4-160,9c0,4,34,90,75,190s75,187,75,194C15526,3508.5,15544,3471.5,15621,3287.5z"/>
		<path class="st0" d="M95,3575.5v-30h145h145v-400v-400h30h30v400v400h145h145v30v30H415H95V3575.5z"/>
		<path class="st0" d="M1245,3175.5v-430h30h30v215v215h290h290v-215v-215h30h30v430v430h-30h-30l-2-187l-3-188l-287-3l-288-2v190
			v190h-30h-30V3175.5z"/>
		<path class="st0" d="M2585,3175.5v-430h205h205v30v30h-175h-175v190v189l153,3l152,3v25v25l-152,3l-153,3v149v150h170h170v30v30
			h-200h-200V3175.5z"/>
		<path class="st0" d="M5755,3175.5v-430h30h30v430v430h-30h-30V3175.5z"/>
		<path class="st0" d="M7825,3175.5v-430h30h30v430v430h-30h-30V3175.5z"/>
		<path class="st0" d="M9955,3348.5c0-372,16-449,110-537c59-55,124-76,234-76c145,1,234,49,287,155c39,80,49,171,49,473v242h-35
			h-35v-293c0-231-3-304-15-344c-36-121-118-177-260-177c-121,1-191,40-236,131c-23,47-24,57-29,363l-5,315l-32,3l-33,3V3348.5z"/>
		<path class="st0" d="M13325,3601.5c0-2,83-197,183-433c143-333,188-429,203-431c16-2,46,61,202,425c100,235,182,432,182,436
			c0,5-14,7-32,5l-32-3l-157-373c-86-205-159-375-162-378c-2-3-7,5-10,18c-4,13-74,183-156,378l-150,355l-36,3
			C13341,3605.5,13325,3604.5,13325,3601.5z"/>
		<path class="st0" d="M14595,3175.5v-430h30h30v430v430h-30h-30V3175.5z"/>
		<path class="st0" d="M16415,3177.5v-429l123-7c205-11,305,21,354,113c28,54,32,155,7,204c-23,45-82,105-127,128l-38,20l45,50
			c54,60,70,103,64,178c-5,72-32,111-96,143c-41,20-64,23-189,26l-143,3V3177.5z M16702,3535.5c24-10,52-33,63-52
			c41-65,7-171-74-233c-35-26-38-27-126-20l-90,7v159v159h93C16637,3555.5,16671,3550.5,16702,3535.5z M16675,3159.5
			c106-31,170-97,177-182c5-60-19-106-76-147c-42-30-45-30-169-30h-127l-3,188l-2,187h73C16588,3175.5,16645,3168.5,16675,3159.5z"
			/>
		<path class="st0" d="M17495,3175.5v-430h225h225v30v30h-195h-195v400v400h-30h-30V3175.5z"/>
		<path class="st0" d="M18455,3175.5v-430h205h205v30v30h-175h-175v190v190h150h150v30v30h-150h-150v150v150l168,2l167,3l3,28l3,27
			h-200h-201V3175.5z"/>
	</g>
</g>
<g>
	<g>
	</g>
</g>
<g>
	<g>
		<path class="st1" d="M700.3,355.5c0,49.2-26.6,73.7-79.8,73.7c-51,0-76.5-23.6-76.5-70.9V251.2h24.6v105.7
			c0,35.9,18.2,53.8,54.5,53.8c35.1,0,52.6-17.3,52.6-52V251.2h24.6V355.5z"/>
		<path class="st1" d="M1004.2,426.3h-30.2L866,286.8c-2.7-3.5-5-7.2-6.7-11h-0.9c0.8,3.7,1.2,11.8,1.2,24v126.5h-24.6v-175h31.9
			L972,388.6c4.4,5.7,7.2,9.6,8.5,11.7h0.6c-1-5-1.5-13.6-1.5-25.8V251.2h24.6V426.3z"/>
		<path class="st1" d="M1166.1,426.3h-24.6v-175h24.6V426.3z"/>
		<path class="st1" d="M1459.7,251.2l-77.8,175h-27.1l-76.2-175h27.4l58.2,138.8c1.9,4.5,3.3,9.6,4.2,15.5h0.6
			c0.8-4.9,2.4-10.1,4.8-15.7l59.3-138.5H1459.7z"/>
		<path class="st1" d="M1683.3,426.3H1572v-175h106.6v18.6h-82V328h75.9v18.4h-75.9v61.3h86.7V426.3z"/>
		<path class="st1" d="M1956.5,426.3h-29.3l-35.2-49.1c-3.2-4.6-6.3-8.4-9.4-11.7c-3-3.2-6.1-5.8-9.3-7.9c-3.2-2-6.6-3.5-10.3-4.5
			s-7.8-1.4-12.4-1.4h-20.2v74.5H1806v-175h62.7c9.2,0,17.7,1,25.4,2.9c7.8,1.9,14.5,4.8,20.2,8.7s10.2,8.8,13.4,14.6
			c3.2,5.8,4.8,12.6,4.8,20.4c0,6.1-1.1,11.7-3.3,16.8s-5.3,9.6-9.4,13.6c-4.1,4-8.9,7.4-14.6,10.2c-5.7,2.8-12.1,5-19.3,6.5v0.5
			c3.5,1.3,6.6,2.8,9.2,4.5c2.6,1.7,5.1,3.6,7.4,5.9c2.3,2.3,4.7,4.9,7,7.8c2.3,2.9,4.9,6.2,7.7,10.1L1956.5,426.3z M1830.6,269.8
			v63.5h33.4c6.2,0,11.8-0.8,17.1-2.3c5.2-1.5,9.7-3.8,13.5-6.7c3.8-2.9,6.8-6.4,8.9-10.6c2.1-4.2,3.2-8.9,3.2-14.1
			c0-9.4-3.6-16.7-10.9-21.9c-7.3-5.2-17.8-7.9-31.6-7.9H1830.6z"/>
		<path class="st1" d="M2057.8,419.2V395c3.3,2.4,7.3,4.6,11.9,6.6c4.6,2,9.5,3.6,14.6,4.9c5.1,1.3,10.3,2.4,15.5,3.1
			c5.2,0.7,10,1.1,14.4,1.1c15.1,0,26.4-2.3,33.9-7s11.2-11.4,11.2-20.2c0-4.7-1.2-8.8-3.7-12.3c-2.5-3.5-5.9-6.7-10.3-9.6
			c-4.4-2.9-9.6-5.7-15.6-8.3c-6-2.6-12.5-5.4-19.4-8.4c-7.3-3.1-14.2-6.2-20.5-9.4c-6.3-3.2-11.9-6.7-16.6-10.5
			c-4.7-3.8-8.4-8.2-11.1-13c-2.7-4.8-4-10.5-4-17c0-8,2.1-14.9,6.3-20.8c4.2-5.9,9.7-10.8,16.6-14.6c6.8-3.8,14.6-6.7,23.4-8.5
			c8.7-1.9,17.7-2.8,26.7-2.8c20.7,0,35.8,2.1,45.3,6.2v23.1c-12.4-7.2-28.3-10.7-47.8-10.7c-5.4,0-10.7,0.5-16.1,1.4
			c-5.4,0.9-10.2,2.5-14.4,4.6c-4.2,2.1-7.6,4.8-10.3,8.2c-2.6,3.3-4,7.4-4,12.2c0,4.5,1,8.3,3,11.6c2,3.3,5,6.2,8.9,8.9
			c3.9,2.7,8.7,5.3,14.3,7.8c5.6,2.5,12.1,5.3,19.4,8.3c7.5,3.1,14.6,6.3,21.4,9.8s12.6,7.2,17.7,11.4c5.1,4.2,9.1,8.7,12.1,13.8
			c3,5,4.5,10.8,4.5,17.3c0,8.6-2,15.9-6.1,21.9c-4.1,6-9.5,10.8-16.4,14.6c-6.9,3.7-14.8,6.5-23.8,8.1c-9,1.7-18.5,2.5-28.4,2.5
			c-3.3,0-7.4-0.2-12.3-0.7c-4.9-0.4-9.9-1.1-14.9-2c-5.1-0.9-9.9-1.9-14.4-3.2C2064.1,422.2,2060.5,420.8,2057.8,419.2z"/>
		<path class="st1" d="M2420.5,426.3h-111.3v-175h106.6v18.6h-82V328h75.9v18.4h-75.9v61.3h86.7V426.3z"/>
	</g>
</g>
</svg>
