<svg width="2560" height="480" xmlns="http://www.w3.org/2000/svg">
 <style type="text/css">.st0{fill:#879DAB;}
	.st1{fill:#255A65;}</style>

 <g>
  <title>background</title>
  <rect fill="none" id="canvas_background" height="402" width="582" y="-1" x="-1"/>
 </g>
 <g>
  <title>Layer 1</title>
  <g id="Symbol">
   <g id="svg_1">
    <path id="svg_2" d="m220.4,478.5c-41.4,-4 -77.4,-16.5 -110.9,-38.5c-23,-15.1 -44.1,-35.2 -60.8,-57.8c-20.7,-28 -35.6,-63.8 -41.9,-100.2c-4.8,-27.8 -4,-62.7 2.2,-90.8c11.6,-53.4 41.4,-101 84.8,-135.8c33.8,-27 76.6,-44.2 123,-49.4c4.3,-0.4 15.1,-0.9 24,-0.9c21.2,0 37.7,2 56.7,6.5c67.6,16.5 126,63.1 155.9,124.6c22.7,46.7 30.1,100 20.9,150.4c-6.8,37.2 -23.5,73.8 -47.5,104.3c-8.3,10.5 -28.4,30.3 -38.9,38.5c-34.2,26.4 -71.8,42 -116.2,48.2c-9.5,1.1 -41.9,1.8 -51.3,0.9zm51.5,-16.5c5.8,-0.8 14.2,-2.4 18.8,-3.5c9.5,-2.2 25.9,-7 25.9,-7.7c0,-0.3 -25.6,-14.1 -56.8,-30.7l-56.8,-30.2l-3.1,1.6c-1.7,1 -4.4,2 -5.9,2.2l-3,0.4l-11.1,27.8c-6.1,15.3 -11.2,28.3 -11.5,28.9c-0.8,2.2 24.4,8.9 42.8,11.5c12.7,1.8 13,1.8 32.2,1.6c13.7,-0.2 20.5,-0.6 28.5,-1.9zm-96.9,-40.9l11.8,-29l-1.8,-2.1c-1,-1.2 -2.2,-3.3 -2.7,-4.8c-0.4,-1.4 -1.3,-2.6 -1.7,-2.6c-0.5,-0.1 -28.7,-4 -62.6,-8.9c-34,-4.8 -61.7,-8.6 -61.7,-8.3c0,0.2 3.2,4.7 7.1,9.9c20.2,26.9 43.8,47.2 73.5,63.3c6.8,3.7 24.1,11.5 25.6,11.6c0.4,-0.2 6,-13.2 12.5,-29.1zm151.9,26l2.8,-1.5l9.7,-33l9.6,-33l-2.6,-2.9c-1.5,-1.7 -2.8,-3.3 -2.9,-3.8c-0.2,-0.6 -21.8,1 -69.7,4.9c-58.1,4.9 -69.4,6 -69.6,6.9c-0.1,0.8 16.7,10 58.9,32.4c32.5,17.1 59.5,31.2 60.1,31.3c0.4,0 2.2,-0.6 3.7,-1.3zm15.3,-6.9c31.5,-15.8 63.8,-45 85.3,-77c2.5,-3.8 4.5,-7.1 4.3,-7.4c-0.3,-0.3 -60.4,11.8 -64.4,12.9c-0.8,0.2 -1.4,0.9 -1.4,1.6c0,4.3 -5.8,10 -10.3,10c-1.4,0 -2.5,0.2 -2.5,0.4c0,0.2 -3.9,13.8 -8.7,30.2c-4.7,16.4 -8.8,30.4 -9,31.1c-0.2,0.7 -0.2,1.3 0.1,1.3c0.3,0 3.2,-1.5 6.6,-3.1zm-68.4,-67.1c37.1,-3.1 67.8,-5.6 68.4,-5.6c0.5,-0.1 1.8,-1.7 2.7,-3.8l1.8,-3.8l-12.7,-20.1l-12.6,-20.2l-3.3,0c-1.8,0 -4.7,-0.7 -6.5,-1.6l-3.1,-1.6l-50.9,30.1c-28,16.7 -51.6,30.7 -52.4,31.2c-1.4,1 -1.4,1 -0.1,1c0.7,0.1 31.6,-2.5 68.7,-5.6zm-88.2,1.4l3.6,-3.6l-2.3,-16.9c-1.4,-9.3 -4.5,-31.3 -7.1,-48.9l-4.6,-32.1l-3.3,0c-1.8,0 -3.8,-0.3 -4.6,-0.8c-1.2,-0.6 -11,6.5 -58.3,42.5c-31.3,23.8 -57.1,43.4 -57.2,43.5c-0.2,0.2 0,0.7 0.4,1c0.6,0.6 122.5,18.5 127.5,18.7c1.9,0.1 3.2,-0.7 5.9,-3.4zm68.7,-31.1l51.7,-30.8l0,-2.9l0,-2.7l-11,-3.4c-6.1,-2 -34,-11.1 -61.9,-20.3l-50.7,-16.7l-1.7,2.2l-1.6,2.2l7.4,50.2c6.1,41.8 7.6,50.2 8.6,50.2c0.6,0 2.3,0.7 3.8,1.4c1.4,0.8 2.8,1.5 3.2,1.5c0.2,-0.1 23.7,-13.9 52.2,-30.9zm146.9,13.2c18.8,-4 34.3,-7.3 34.3,-7.4c0.7,-0.7 9.2,-18.5 11.5,-24c8.5,-20.4 14.2,-44.9 15.7,-67.6l0.7,-9.7l-17.4,-20.5c-16.8,-19.9 -17.4,-20.5 -19.8,-20.2l-2.6,0.2l-31.3,76l-31.4,76l2,2.2c1.1,1.2 2.5,2.2 3.1,2.2s16.4,-3.3 35.2,-7.2zm-44.5,0.1c0.5,-0.4 60.3,-146.2 60.1,-146.4c-0.1,-0.1 -20.5,20.4 -45.4,45.7l-45,45.9l1,2.4c1.5,3.4 1.3,6.1 -0.7,9.6l-1.7,3.1l12.8,20.3l12.8,20.4l3,-0.5c1.7,-0.2 3.1,-0.4 3.1,-0.5zm-250.6,-45.8c30.2,-23 55,-42.1 55.3,-42.3c2.3,-2 -2.9,-2.3 -71,-4.9c-38.7,-1.4 -70.6,-2.5 -70.8,-2.2c-0.1,0.1 0.5,5.8 1.4,12.4c3.7,26 12.1,52 24.3,74c3.3,6.1 3.9,6.8 5,5.9c0.6,-0.6 25.8,-19.9 55.8,-42.9zm203.3,-10.7c1.3,-1.2 2.9,-2.4 3.6,-2.9c1.1,-0.7 1,-4.8 -1.7,-52.1c-1.6,-28.3 -3,-51.5 -3,-51.5c0,-0.1 -0.6,-0.2 -1.4,-0.2c-0.8,0 -2.2,-0.7 -3.4,-1.6l-2,-1.6l-25.6,15c-14.1,8.2 -40.7,23.8 -59,34.5c-18.4,10.8 -33.4,20 -33.4,20.5c0,0.6 23.4,8.7 61.5,21.4c33.8,11.2 61.7,20.4 61.8,20.5c0,0 1.2,-0.8 2.6,-2zm44.2,-31.8c16.5,-16.6 37.5,-37.9 46.7,-47.2l16.7,-16.9l-1.3,-2.3l-1.4,-2.2l-43.9,-6.1c-24.1,-3.4 -45.1,-6.4 -46.6,-6.6c-2.3,-0.3 -2.8,-0.1 -4,2c-0.8,1.3 -2.6,2.9 -4,3.5c-1.4,0.7 -2.6,1.6 -2.6,2c-0.1,0.5 1.2,23.7 2.8,51.6l2.8,50.8l1.9,0.7c1.1,0.4 2,0.8 2.2,0.8c0.6,0 14.2,-13.6 30.7,-30.1zm-194,-8.6c-0.1,-0.7 -16.8,-13.4 -37.1,-28.1l-36.9,-26.9l-2.8,1.2c-1.9,0.8 -4,1.1 -6.3,0.8c-1.9,-0.2 -4.1,-0.5 -5,-0.6c-1.2,-0.1 -8,5.7 -27.2,23.7c-15.3,14.4 -25.6,24.5 -25.6,25.4c0,1.2 0.8,1.3 6.2,1.4c3.4,0 32.3,1 64.3,2.1c73.9,2.6 70.7,2.5 70.4,1zm4.4,-6.6l1.6,-1.7l-7.8,-35c-4.3,-19.2 -7.9,-35.1 -7.9,-35.2c0,-0.2 -1,-0.5 -2.4,-0.8c-1.3,-0.2 -3.5,-1.4 -4.9,-2.4l-2.6,-1.9l-25.4,9.1l-25.4,9.2l-0.5,3.4c-0.4,2.8 -0.2,3.5 0.9,4.4c0.8,0.5 17.2,12.7 36.6,26.9c19.3,14.2 35.4,26 35.6,26c0.4,-0.2 1.3,-1 2.2,-2zm76,-32.2c31.6,-18.4 57.7,-33.9 58.1,-34.5c0.4,-0.6 0.5,-1.4 0.2,-1.6c-0.2,-0.3 -31.3,-3.1 -69,-6.3l-68.5,-5.8l-1.2,1.9c-0.7,1.1 -2.2,2.7 -3.4,3.5l-2.1,1.6l7.8,34.9l7.9,34.9l3.2,0.5c2,0.3 4.1,1.3 5.6,2.6c1.4,1.2 2.8,2.1 3.1,1.9c0.6,0 26.7,-15.2 58.3,-33.6zm-173,-20.7c-0.5,-5.3 -0.3,-7.4 0.8,-9.5l1.1,-2.2l-15.5,-18.6l-15.4,-18.6l-2,4.4c-10.5,23.6 -17.1,55 -17.2,81.4l0,10.4l24.2,-22.7c20.2,-19.1 24.1,-23.1 24,-24.6zm395.8,27.4c-1.3,-20.2 -4.4,-36.7 -10.1,-54.1c-2.9,-8.8 -10.1,-26.2 -10.5,-25.7c-0.1,0.1 -2.6,8.8 -5.6,19.2l-5.4,19l2,1.9c3.8,3.9 4.4,10.1 1.1,14.2c-1.6,1.9 -1.6,1.9 -0.1,3.6c0.8,0.9 7.6,9 15.2,18c7.5,9 13.8,16.2 13.9,16.1s-0.2,-5.7 -0.5,-12.2zm-48.2,-36.5l1.6,-3.1l-34.2,-58.6c-18.8,-32.2 -34.6,-59 -35,-59.6c-0.7,-0.7 -1.4,-0.8 -3.1,-0.2l-2.2,0.8l-13,50.7l-13,50.6l2.6,2.8c1.5,1.5 3,3.8 3.4,5l0.8,2.2l43.8,6.2c24.1,3.3 44.6,6.1 45.4,6.1c1,0.2 1.8,-0.7 2.9,-2.9zm-301.1,-10.9c22.6,-8.2 24.5,-9 24.5,-10.6c0,-0.9 0.5,-2.9 1.1,-4.4l1.1,-2.7l-30.8,-35.2c-16.9,-19.4 -31,-35.1 -31.1,-34.9c-0.2,0.1 0.1,16.4 0.4,36.2c0.4,19.7 0.8,40.3 0.8,45.8l0,9.9l2.2,0.9c1.2,0.5 2.9,1.7 3.9,2.7c1,1 2.1,1.7 2.5,1.6c0.4,-0.2 11.8,-4.4 25.4,-9.3zm-38.8,-31c-0.2,-19.7 -0.7,-39.5 -0.9,-44.2c-0.6,-10 -0.2,-10.1 -9,1.5c-7,9.1 -14.4,20.9 -20.4,32.1l-4.6,8.6l16.2,19.4c13.6,16.2 16.4,19.1 17.6,18.8l1.7,-0.4l-0.6,-35.8zm352.1,34.5c0.2,-0.2 3.2,-10 6.6,-21.7l6.1,-21.2l-4.6,-8.1c-5.6,-9.8 -13.1,-20.9 -19.9,-29.4c-10.5,-13.2 -38.6,-39.6 -44.6,-41.9c-1,-0.4 -5.4,-1 -9.8,-1.3l-7.9,-0.5l-1.2,3l-1.2,3l34.6,59.7l34.6,59.7l3.4,-0.4c2,-0.2 3.7,-0.6 3.9,-0.9zm-130.2,-5.1c-0.4,-0.4 -27.1,-14.4 -59.2,-31.3c-32.2,-16.8 -60.5,-31.6 -62.9,-32.9c-3.9,-2.1 -4.4,-2.2 -5.2,-1.1c-1.3,1.7 -5.9,4.4 -7.4,4.4c-1.4,0 -1.2,-1.1 -5.1,22.5c-2.2,12.7 -2.8,18.5 -2.2,18.6c2,0.7 4.7,3.8 5.6,6.5c0.8,2.4 1.4,3.1 3.2,3.3c5,0.6 126.2,10.4 130,10.5c2.1,0 3.6,-0.2 3.2,-0.5zm6.8,-4.7c0.8,-0.8 2.9,-1.9 4.7,-2.3c2.8,-0.8 3.3,-1.2 3.9,-3.6c6.8,-26 25,-96 25.3,-96.9c0.2,-0.8 -0.5,-1.7 -2.2,-2.7c-1.4,-0.8 -3.2,-2.9 -4,-4.5l-1.4,-3l-78.7,22.3c-64.4,18.3 -78.8,22.6 -78.8,23.6c0,0.9 17.9,10.6 64.5,34.9c35.5,18.5 64.7,33.7 64.9,33.7c0.2,0 1,-0.7 1.8,-1.5zm-155.7,-15.8c1,0 1.6,-0.7 1.9,-2c0.8,-3.5 6.4,-37.3 6.4,-38.1c0,-0.4 -1,-1.4 -2.2,-2.2c-2.6,-1.8 -4.3,-4.4 -5,-8.1c-0.3,-1.7 -1,-2.9 -1.8,-3.2c-10.6,-3 -64.5,-17.6 -65.2,-17.6c-0.5,0 -0.8,0.4 -0.7,0.8c0.2,0.4 14.2,16.8 31.4,36.3c26.2,29.9 31.2,35.4 32.3,34.8c0.8,-0.3 2.1,-0.7 2.9,-0.7zm103.2,-79.8c55.6,-15.6 79,-22.5 79.5,-23.4c0.5,-0.7 1.8,-2.4 3.1,-3.9l2.3,-2.6l-2.2,-5.1c-2.6,-5.8 -1.9,-5.3 -15.4,-10.4c-23.2,-8.7 -49,-13.5 -73.8,-13.7c-7.3,0 -13.3,0.1 -13.6,0.3c-6.7,8 -61.3,79 -61.3,79.7c0,1.3 0.7,2 1.7,1.6c0.6,-0.2 36.4,-10.4 79.7,-22.5zm-98.9,19.8c2.3,-2.6 6.1,-3.8 10,-3.3l3.5,0.5l28.5,-36.6c15.6,-20.1 28.9,-37.2 29.4,-38c1,-1.3 0.8,-1.4 -3.4,-0.9c-48,4.9 -95,26 -129.9,58.2l-4.6,4.3l3.2,0.9c20.3,5.5 60.4,16.3 61.1,16.3c0.4,0.2 1.3,-0.6 2.2,-1.4zm211,-42.2c0,-0.4 -16.7,-10.3 -20.8,-12.4c-1.8,-1 -3.5,-1.5 -3.7,-1.3c-0.1,0.2 0.2,1.4 0.8,2.7c0.9,1.6 2,2.5 4.4,3.1c2,0.5 4.2,2 6.1,3.9c2.6,2.8 3.3,3.1 7.9,3.5c2.7,0.3 5,0.6 5.2,0.7c0,0 0.1,-0.1 0.1,-0.2z" class="st0"/>
   </g>
  </g>
  <g id="svg_13">
   <g id="svg_14">
    <path id="svg_15" d="m700.3,355.5c0,49.2 -26.6,73.7 -79.8,73.7c-51,0 -76.5,-23.6 -76.5,-70.9l0,-107.1l24.6,0l0,105.7c0,35.9 18.2,53.8 54.5,53.8c35.1,0 52.6,-17.3 52.6,-52l0,-107.5l24.6,0l0,104.3z" class="st1"/>
    <path id="svg_16" d="m1004.2,426.3l-30.2,0l-108,-139.5c-2.7,-3.5 -5,-7.2 -6.7,-11l-0.9,0c0.8,3.7 1.2,11.8 1.2,24l0,126.5l-24.6,0l0,-175l31.9,0l105.1,137.3c4.4,5.7 7.2,9.6 8.5,11.7l0.6,0c-1,-5 -1.5,-13.6 -1.5,-25.8l0,-123.3l24.6,0l0,175.1z" class="st1"/>
    <path id="svg_17" d="m1166.1,426.3l-24.6,0l0,-175l24.6,0l0,175z" class="st1"/>
    <path id="svg_18" d="m1459.7,251.2l-77.8,175l-27.1,0l-76.2,-175l27.4,0l58.2,138.8c1.9,4.5 3.3,9.6 4.2,15.5l0.6,0c0.8,-4.9 2.4,-10.1 4.8,-15.7l59.3,-138.5l26.6,0l0,-0.1z" class="st1"/>
    <path id="svg_19" d="m1683.3,426.3l-111.3,0l0,-175l106.6,0l0,18.6l-82,0l0,58.1l75.9,0l0,18.4l-75.9,0l0,61.3l86.7,0l0,18.6z" class="st1"/>
    <path id="svg_20" d="m1956.5,426.3l-29.3,0l-35.2,-49.1c-3.2,-4.6 -6.3,-8.4 -9.4,-11.7c-3,-3.2 -6.1,-5.8 -9.3,-7.9c-3.2,-2 -6.6,-3.5 -10.3,-4.5s-7.8,-1.4 -12.4,-1.4l-20.2,0l0,74.5l-24.4,0l0,-175l62.7,0c9.2,0 17.7,1 25.4,2.9c7.8,1.9 14.5,4.8 20.2,8.7s10.2,8.8 13.4,14.6c3.2,5.8 4.8,12.6 4.8,20.4c0,6.1 -1.1,11.7 -3.3,16.8s-5.3,9.6 -9.4,13.6c-4.1,4 -8.9,7.4 -14.6,10.2c-5.7,2.8 -12.1,5 -19.3,6.5l0,0.5c3.5,1.3 6.6,2.8 9.2,4.5c2.6,1.7 5.1,3.6 7.4,5.9c2.3,2.3 4.7,4.9 7,7.8c2.3,2.9 4.9,6.2 7.7,10.1l39.3,52.6zm-125.9,-156.5l0,63.5l33.4,0c6.2,0 11.8,-0.8 17.1,-2.3c5.2,-1.5 9.7,-3.8 13.5,-6.7c3.8,-2.9 6.8,-6.4 8.9,-10.6c2.1,-4.2 3.2,-8.9 3.2,-14.1c0,-9.4 -3.6,-16.7 -10.9,-21.9c-7.3,-5.2 -17.8,-7.9 -31.6,-7.9l-33.6,0z" class="st1"/>
    <path id="svg_21" d="m2057.8,419.2l0,-24.2c3.3,2.4 7.3,4.6 11.9,6.6c4.6,2 9.5,3.6 14.6,4.9c5.1,1.3 10.3,2.4 15.5,3.1c5.2,0.7 10,1.1 14.4,1.1c15.1,0 26.4,-2.3 33.9,-7s11.2,-11.4 11.2,-20.2c0,-4.7 -1.2,-8.8 -3.7,-12.3c-2.5,-3.5 -5.9,-6.7 -10.3,-9.6c-4.4,-2.9 -9.6,-5.7 -15.6,-8.3c-6,-2.6 -12.5,-5.4 -19.4,-8.4c-7.3,-3.1 -14.2,-6.2 -20.5,-9.4c-6.3,-3.2 -11.9,-6.7 -16.6,-10.5c-4.7,-3.8 -8.4,-8.2 -11.1,-13c-2.7,-4.8 -4,-10.5 -4,-17c0,-8 2.1,-14.9 6.3,-20.8c4.2,-5.9 9.7,-10.8 16.6,-14.6c6.8,-3.8 14.6,-6.7 23.4,-8.5c8.7,-1.9 17.7,-2.8 26.7,-2.8c20.7,0 35.8,2.1 45.3,6.2l0,23.1c-12.4,-7.2 -28.3,-10.7 -47.8,-10.7c-5.4,0 -10.7,0.5 -16.1,1.4c-5.4,0.9 -10.2,2.5 -14.4,4.6c-4.2,2.1 -7.6,4.8 -10.3,8.2c-2.6,3.3 -4,7.4 -4,12.2c0,4.5 1,8.3 3,11.6c2,3.3 5,6.2 8.9,8.9c3.9,2.7 8.7,5.3 14.3,7.8c5.6,2.5 12.1,5.3 19.4,8.3c7.5,3.1 14.6,6.3 21.4,9.8s12.6,7.2 17.7,11.4c5.1,4.2 9.1,8.7 12.1,13.8c3,5 4.5,10.8 4.5,17.3c0,8.6 -2,15.9 -6.1,21.9c-4.1,6 -9.5,10.8 -16.4,14.6c-6.9,3.7 -14.8,6.5 -23.8,8.1c-9,1.7 -18.5,2.5 -28.4,2.5c-3.3,0 -7.4,-0.2 -12.3,-0.7c-4.9,-0.4 -9.9,-1.1 -14.9,-2c-5.1,-0.9 -9.9,-1.9 -14.4,-3.2c-4.7,-1.2 -8.3,-2.6 -11,-4.2z" class="st1"/>
    <path id="svg_22" d="m2420.5,426.3l-111.3,0l0,-175l106.6,0l0,18.6l-82,0l0,58.1l75.9,0l0,18.4l-75.9,0l0,61.3l86.7,0l0,18.6z" class="st1"/>
   </g>
  </g>
  <text stroke="#74afaf" transform="matrix(2.189908504486084,0,0,1.8236295151871218,-633.6213400537381,-169.29743305564585) " xml:space="preserve" text-anchor="start" font-family="Arvo, sans-serif" font-size="62" id="svg_23" y="186.562481" x="528.618914" stroke-width="0" fill="#6c8989">WELCOME TO THE MINIMAL</text>
 </g>
</svg>